# xmcd
#
# Track frame offsets:
#   150
#   10042
#   20897
#   34862
#   49620
#   62005
#   75285
#   94007
#   106235
#   119695
#   132720
#   144557
#   156892
#   165852
#   179572
#   191417
#   201550
#   218235
#   230245
#   241982
#
# Disc length: 3376 seconds
#
# Revision: 0
# Processed by: cddbd v1.4PL0 Copyright (c) Steve Scherf et al.
# Submitted via: CD-Datenbank 4.*
#
DISCID=1b0d2e14
DTITLE=Dave Dudley - Dave Dudley digitally remastered
DYEAR=1998
DGENRE=Country
TTITLE0=Six days on the road
TTITLE1=King of the road
TTITLE2=Volkswagen
TTITLE3=Mack the knife
TTITLE4=Music city USA
TTITLE5=A hammer an nails
TTITLE6=Cowboy you're America
TTITLE7=I wish, I could "Sprechen Sie deutsch"
TTITLE8=Girl on the billboard
TTITLE9=Bill Bailey
TTITLE10=Sentimental Journey
TTITLE11=Wings of a dove
TTITLE12=John Henry
TTITLE13=Pool shark
TTITLE14=A hard days night
TTITLE15=Diesel smoke down the road
TTITLE16=Amazing grace
TTITLE17=Danke schoen
TTITLE18=Wooden hard
TTITLE19=Cowboy boots
EXTD=
EXTT0=
EXTT1=
EXTT2=
EXTT3=
EXTT4=
EXTT5=
EXTT6=
EXTT7=
EXTT8=
EXTT9=
EXTT10=
EXTT11=
EXTT12=
EXTT13=
EXTT14=
EXTT15=
EXTT16=
EXTT17=
EXTT18=
EXTT19=
PLAYORDER=
